<svg width="615" height="47" viewBox="0 0 615 47" fill="none" xmlns="http://www.w3.org/2000/svg">
<path d="M36.54 33.7199C39.6 36.2999 39.6 37.0799 36.42 39.5399C32.7 42.3599 28.38 43.6199 23.76 43.6799C15.78 43.6799 9.54 40.3799 5.4 33.5399C1.78814e-07 24.5999 1.32 12.7799 10.62 6.23988C18.12 1.01988 26.04 -0.000118732 34.38 4.13988C35.58 4.73988 36.72 5.51988 37.68 6.53988C38.1 7.01988 38.58 7.55988 38.58 8.21988C38.7 10.1999 36.96 10.9799 35.82 12.1799C35.1 13.0199 34.08 12.8999 33.18 12.3599C31.92 11.6999 30.66 10.9199 29.4 10.2599C24.9 7.79988 20.52 8.57988 16.62 11.3399C15.24 12.2999 14.1 13.4999 13.2 14.8199C10.5 18.7799 10.32 23.6399 11.52 27.2399C12 28.7399 12.66 29.8799 13.14 30.5999C14.88 33.1799 16.98 34.4999 17.46 34.7399C18.6 35.3999 19.62 35.7599 20.04 35.8799C20.76 36.1199 23.16 36.7799 25.98 36.1799C28.14 35.6999 30.06 34.6199 31.92 33.4199C34.2 31.9799 34.56 32.0399 36.54 33.7199ZM95.2191 20.9399C96.9591 28.9199 93.1191 37.7999 86.0991 41.9999C81.8991 44.4599 77.3991 45.2999 71.8191 45.4199C66.5991 45.2999 61.6791 42.9599 57.5991 38.3999C50.2791 30.2999 51.1191 19.6799 56.2791 11.5799C56.7591 10.7399 57.4191 9.95988 58.1391 9.35988C61.5591 6.53988 65.0991 3.71988 69.6591 3.11988C75.7791 2.27988 81.5391 3.05988 86.5791 7.13988C91.0191 10.7399 93.9591 15.2999 95.2191 20.9399ZM87.2991 25.7999C87.7791 22.8599 86.5791 20.5199 85.1991 18.0599C82.7391 13.4999 79.1391 10.9199 73.8591 10.9199C72.5991 10.9799 71.3991 10.9199 70.2591 11.2799C64.6791 12.8999 61.6791 16.7399 60.6591 22.2599C59.6391 27.5399 60.8991 31.9799 65.9991 34.7399C66.5991 35.0399 67.0791 35.4599 67.6191 35.8199C75.7791 40.1999 85.6191 36.5399 87.2991 25.7999ZM153.435 37.7399C153.435 37.7399 153.795 39.4799 153.795 43.0799C153.855 44.7599 153.375 45.1799 151.695 45.3599C151.155 45.4199 150.615 45.4799 150.015 45.4799C147.675 45.5399 146.835 44.8799 146.535 42.4799C145.695 36.3599 143.955 30.3599 143.175 24.2399C143.115 23.9999 142.995 23.8199 142.815 23.3999C141.675 24.2999 141.255 25.4999 140.775 26.6399C138.975 31.5599 137.235 36.4799 135.435 41.3999C135.135 42.1799 134.775 42.8999 134.535 43.6199C134.055 44.9399 133.155 45.4799 131.775 45.5399C130.395 45.5399 129.675 44.6999 129.195 43.6799C128.355 41.8199 127.515 39.9599 126.735 38.1599C124.815 33.7199 122.955 29.2799 121.035 24.8399C120.915 24.5999 120.735 24.4799 120.435 24.1799C119.895 27.7199 119.415 31.1399 118.875 34.4999C118.455 36.9599 117.915 39.4199 117.495 41.8799C117.195 43.6799 116.175 44.5799 114.495 44.8199C114.315 44.8799 114.135 44.8799 114.015 44.8799C109.635 45.4799 108.555 44.2799 109.335 39.9599C110.295 34.5599 110.895 29.0999 112.155 23.8199C113.475 18.1199 114.015 12.3599 115.095 6.65988C115.515 4.13988 116.655 3.47988 119.115 3.65988C120.555 3.77988 121.275 4.73988 121.695 5.87988C122.595 8.33988 123.435 10.7399 124.215 13.1999C125.715 18.1199 128.415 22.4399 130.515 27.0599C130.635 27.4199 130.935 27.7199 131.175 28.0199C131.835 28.7399 132.315 28.4399 132.675 27.7799C133.455 26.5199 134.055 25.1999 134.595 23.8799C136.815 18.4199 138.975 12.9599 141.135 7.49988C141.375 6.89988 141.615 6.29988 141.915 5.69988C142.875 3.77988 144.495 3.11988 146.535 3.65988C147.435 3.89988 147.855 4.55988 147.975 5.39988C148.335 7.19988 148.635 9.05988 148.875 10.8599C149.115 12.5399 149.115 11.8199 150.435 19.4399C151.515 26.0999 151.155 25.4399 151.995 29.8799C152.535 32.5199 152.775 35.1599 153.435 37.7399ZM211.619 37.7399C211.619 37.7399 211.979 39.4799 211.979 43.0799C212.039 44.7599 211.559 45.1799 209.879 45.3599C209.339 45.4199 208.799 45.4799 208.199 45.4799C205.859 45.5399 205.019 44.8799 204.719 42.4799C203.879 36.3599 202.139 30.3599 201.359 24.2399C201.299 23.9999 201.179 23.8199 200.999 23.3999C199.859 24.2999 199.439 25.4999 198.959 26.6399C197.159 31.5599 195.419 36.4799 193.619 41.3999C193.319 42.1799 192.959 42.8999 192.719 43.6199C192.239 44.9399 191.339 45.4799 189.959 45.5399C188.579 45.5399 187.859 44.6999 187.379 43.6799C186.539 41.8199 185.699 39.9599 184.919 38.1599C182.999 33.7199 181.139 29.2799 179.219 24.8399C179.099 24.5999 178.919 24.4799 178.619 24.1799C178.079 27.7199 177.599 31.1399 177.059 34.4999C176.639 36.9599 176.099 39.4199 175.679 41.8799C175.379 43.6799 174.359 44.5799 172.679 44.8199C172.499 44.8799 172.319 44.8799 172.199 44.8799C167.819 45.4799 166.739 44.2799 167.519 39.9599C168.479 34.5599 169.079 29.0999 170.339 23.8199C171.659 18.1199 172.199 12.3599 173.279 6.65988C173.699 4.13988 174.839 3.47988 177.299 3.65988C178.739 3.77988 179.459 4.73988 179.879 5.87988C180.779 8.33988 181.619 10.7399 182.399 13.1999C183.899 18.1199 186.599 22.4399 188.699 27.0599C188.819 27.4199 189.119 27.7199 189.359 28.0199C190.019 28.7399 190.499 28.4399 190.859 27.7799C191.639 26.5199 192.239 25.1999 192.779 23.8799C194.999 18.4199 197.159 12.9599 199.319 7.49988C199.559 6.89988 199.799 6.29988 200.099 5.69988C201.059 3.77988 202.679 3.11988 204.719 3.65988C205.619 3.89988 206.039 4.55988 206.159 5.39988C206.519 7.19988 206.819 9.05988 207.059 10.8599C207.299 12.5399 207.299 11.8199 208.619 19.4399C209.699 26.0999 209.339 25.4399 210.179 29.8799C210.719 32.5199 210.959 35.1599 211.619 37.7399ZM268.422 20.9399C270.162 28.9199 266.322 37.7999 259.302 41.9999C255.102 44.4599 250.602 45.2999 245.022 45.4199C239.802 45.2999 234.882 42.9599 230.802 38.3999C223.482 30.2999 224.322 19.6799 229.482 11.5799C229.962 10.7399 230.622 9.95988 231.342 9.35988C234.762 6.53988 238.302 3.71988 242.862 3.11988C248.982 2.27988 254.742 3.05988 259.782 7.13988C264.222 10.7399 267.162 15.2999 268.422 20.9399ZM260.502 25.7999C260.982 22.8599 259.782 20.5199 258.402 18.0599C255.942 13.4999 252.342 10.9199 247.062 10.9199C245.802 10.9799 244.602 10.9199 243.462 11.2799C237.882 12.8999 234.882 16.7399 233.862 22.2599C232.842 27.5399 234.102 31.9799 239.202 34.7399C239.802 35.0399 240.282 35.4599 240.822 35.8199C248.982 40.1999 258.822 36.5399 260.502 25.7999ZM317.818 24.5999C317.638 28.5599 318.238 33.1199 317.938 37.7399C317.818 39.2399 317.698 40.7999 317.458 42.2999C317.098 45.2399 315.178 46.1399 312.718 44.5199C311.938 44.0999 311.338 43.4399 310.738 42.7199C306.898 38.1599 303.118 33.5399 299.278 29.0399C297.058 26.4599 294.718 23.9399 292.858 21.1199C292.678 20.8799 292.438 20.6399 292.198 20.4599C291.718 20.1599 291.238 19.7399 290.638 20.0399C290.158 20.3399 290.278 20.9399 290.278 21.3599C290.278 26.9999 290.338 32.6999 290.398 38.3399C290.398 39.5999 290.338 40.9199 290.218 42.1799C290.038 43.7399 289.438 44.2799 287.878 44.3999C287.158 44.4599 286.438 44.4599 285.718 44.5199C283.618 44.5199 282.658 43.7999 282.658 41.6999C282.718 37.0799 282.178 32.5199 282.298 27.8999C282.478 21.1199 282.478 14.3999 282.598 7.61988C282.598 6.35988 282.118 4.85988 283.738 4.25988C285.478 3.65988 287.158 3.89988 288.418 5.27988C290.398 7.25988 292.318 9.35988 294.178 11.4599C296.578 14.0399 298.918 16.7399 301.018 19.6199C302.698 21.9599 304.618 24.1199 306.718 26.1599C307.138 26.5799 307.498 26.9999 307.978 27.2999C308.818 27.8399 309.538 27.4799 309.598 26.3999C309.658 24.2999 309.598 22.1999 309.598 20.1599C309.598 15.7799 309.538 11.3999 309.598 7.07988C309.598 4.55988 309.958 4.25988 312.358 4.19988C312.598 4.13988 312.838 4.13988 313.078 4.13988C317.158 4.25988 317.638 4.31988 317.818 8.93988C317.998 13.9199 317.818 18.9599 317.818 24.5999ZM367.697 35.1599C368.237 38.5199 367.097 40.6199 363.977 41.8799C358.037 44.3399 351.977 45.0599 345.857 42.6599C341.177 40.8599 337.397 37.7399 334.277 33.7799C333.137 32.2799 332.657 30.4799 332.297 28.6199C331.817 25.5599 331.097 22.4399 331.877 19.3199C334.577 8.39988 343.577 1.85988 354.017 1.97988C355.877 2.03988 357.617 2.57988 359.357 3.23988C361.457 4.13988 363.317 5.39988 365.237 6.59988C367.097 7.73988 367.217 8.81988 365.957 10.6199C365.597 11.1599 365.237 11.6999 364.757 12.1199C363.977 13.0199 363.017 13.1999 361.937 12.5999C360.917 12.0599 359.957 11.4599 358.997 10.9799C352.397 7.55988 343.937 10.1399 340.337 16.6199C338.117 20.5799 338.957 27.1799 342.077 30.7199C344.297 33.2399 346.877 35.1599 350.057 36.3599C352.877 37.4399 355.577 37.2599 358.337 36.6599C360.317 36.1799 361.397 32.7599 360.197 31.0799C359.837 30.6599 359.417 30.4799 358.937 30.4799C358.277 30.4199 357.617 30.4199 357.017 30.4199C354.857 30.3599 354.137 29.6999 353.837 27.5999C353.477 24.5399 354.497 23.3999 357.617 23.5199C358.637 23.5799 359.717 23.6999 360.917 23.7599C362.117 23.7599 363.497 23.6999 364.877 23.7599C366.737 23.8799 367.277 24.4199 367.397 26.2799C367.457 27.2399 367.457 28.1999 367.397 29.1599C367.217 31.1999 367.337 33.1799 367.697 35.1599ZM404.302 26.6999C402.082 28.1399 401.902 27.8999 403.162 30.1799C404.902 33.3599 409.102 36.6599 411.022 39.7199C411.262 40.1399 411.502 40.5599 411.682 41.0399C412.582 43.1999 411.802 44.5199 409.402 44.5799C404.122 44.5799 404.002 44.6999 401.722 40.0799C400.222 36.9599 396.442 32.2799 394.762 29.4599C393.502 27.3599 389.902 27.2399 389.602 28.6199C389.422 29.4599 389.362 30.0599 389.362 30.9599C389.422 34.0799 389.062 37.1999 389.542 40.3199C389.962 43.3199 389.122 44.0399 386.062 44.0399C385.942 44.0399 385.882 44.0999 385.822 44.0999C382.402 44.0999 381.682 43.4999 381.562 40.0199C381.442 35.6399 381.442 31.1999 381.382 26.7599C381.322 25.4399 381.382 24.1799 381.382 22.8599H381.322C381.322 17.6999 381.322 12.5399 381.322 7.37988C381.322 6.83988 381.322 6.29988 381.382 5.69988C381.562 3.71988 382.222 3.05988 384.202 2.75988C384.622 2.69988 385.042 2.63988 385.402 2.63988C390.502 3.05988 395.542 2.57988 400.642 2.87988C404.662 3.11988 407.722 4.85988 409.822 8.27988C411.622 11.2799 413.002 14.4599 412.522 18.1199C412.042 21.5399 408.682 24.4199 404.902 26.3999C404.722 26.4599 404.482 26.5799 404.302 26.6999ZM399.082 21.7799C402.202 21.7199 404.722 18.6599 404.602 15.3599C404.482 12.6599 402.142 10.6199 398.962 10.5599C396.382 10.4999 393.862 10.5599 391.282 10.4999C390.622 10.4999 390.202 10.6199 389.962 10.8599C389.602 11.2799 389.602 11.8799 389.602 12.2399C389.662 13.3799 389.482 14.5199 389.422 15.6599C389.422 17.1599 389.182 18.7799 389.362 20.3999C389.362 20.6999 389.422 21.2999 389.902 21.6599C390.142 21.8999 390.502 21.8999 390.622 21.8999C395.362 22.1999 397.582 21.8399 399.082 21.7799ZM469.047 20.9399C470.787 28.9199 466.947 37.7999 459.927 41.9999C455.727 44.4599 451.227 45.2999 445.647 45.4199C440.427 45.2999 435.507 42.9599 431.427 38.3999C424.107 30.2999 424.947 19.6799 430.107 11.5799C430.587 10.7399 431.247 9.95988 431.967 9.35988C435.387 6.53988 438.927 3.71988 443.487 3.11988C449.607 2.27988 455.367 3.05988 460.407 7.13988C464.847 10.7399 467.787 15.2999 469.047 20.9399ZM461.127 25.7999C461.607 22.8599 460.407 20.5199 459.027 18.0599C456.567 13.4999 452.967 10.9199 447.687 10.9199C446.427 10.9799 445.227 10.9199 444.087 11.2799C438.507 12.8999 435.507 16.7399 434.487 22.2599C433.467 27.5399 434.727 31.9799 439.827 34.7399C440.427 35.0399 440.907 35.4599 441.447 35.8199C449.607 40.1999 459.447 36.5399 461.127 25.7999ZM515.863 8.15988C515.683 16.0199 516.523 23.9399 515.563 31.7999C514.903 37.1999 512.023 41.1599 507.163 43.3799C503.263 45.2399 499.123 45.8399 494.743 44.6999C489.523 43.2599 486.283 39.8399 484.363 35.0399C483.463 32.7599 483.343 30.7799 483.103 26.9999C482.863 23.6399 482.923 20.8199 483.043 18.7799C483.043 15.2999 482.923 11.8199 483.043 8.39988C483.223 2.93988 484.243 3.83988 487.783 3.77988C490.363 3.77988 490.903 4.25988 490.903 6.95988C490.903 11.5199 490.723 16.1399 490.843 20.7599C490.903 24.0599 490.783 27.3599 491.263 30.5999C491.683 33.3599 492.703 34.4999 493.243 35.1599C493.663 35.6399 496.183 38.8199 500.383 38.5799C503.743 38.3399 506.203 35.9999 507.223 33.7799C507.463 33.2999 507.823 32.6399 507.823 29.5199C507.883 25.3199 507.763 21.1199 507.943 16.9199C508.063 13.4399 508.423 10.0199 508.243 6.53988C508.123 4.37988 508.783 3.83988 510.943 3.71988C515.143 3.47988 515.923 3.95988 515.863 8.15988ZM565.084 24.5999C564.904 28.5599 565.504 33.1199 565.204 37.7399C565.084 39.2399 564.964 40.7999 564.724 42.2999C564.364 45.2399 562.444 46.1399 559.984 44.5199C559.204 44.0999 558.604 43.4399 558.004 42.7199C554.164 38.1599 550.384 33.5399 546.544 29.0399C544.324 26.4599 541.984 23.9399 540.124 21.1199C539.944 20.8799 539.704 20.6399 539.464 20.4599C538.984 20.1599 538.504 19.7399 537.904 20.0399C537.424 20.3399 537.544 20.9399 537.544 21.3599C537.544 26.9999 537.604 32.6999 537.664 38.3399C537.664 39.5999 537.604 40.9199 537.484 42.1799C537.304 43.7399 536.704 44.2799 535.144 44.3999C534.424 44.4599 533.704 44.4599 532.984 44.5199C530.884 44.5199 529.924 43.7999 529.924 41.6999C529.984 37.0799 529.444 32.5199 529.564 27.8999C529.744 21.1199 529.744 14.3999 529.864 7.61988C529.864 6.35988 529.384 4.85988 531.004 4.25988C532.744 3.65988 534.424 3.89988 535.684 5.27988C537.664 7.25988 539.584 9.35988 541.444 11.4599C543.844 14.0399 546.184 16.7399 548.284 19.6199C549.964 21.9599 551.884 24.1199 553.984 26.1599C554.404 26.5799 554.764 26.9999 555.244 27.2999C556.084 27.8399 556.804 27.4799 556.864 26.3999C556.924 24.2999 556.864 22.1999 556.864 20.1599C556.864 15.7799 556.804 11.3999 556.864 7.07988C556.864 4.55988 557.224 4.25988 559.624 4.19988C559.864 4.13988 560.104 4.13988 560.344 4.13988C564.424 4.25988 564.904 4.31988 565.084 8.93988C565.264 13.9199 565.084 18.9599 565.084 24.5999ZM611.303 12.5999C613.763 17.2199 614.543 22.0799 613.403 27.1199C611.483 35.8799 605.543 40.9799 597.023 42.9599C591.923 44.1599 586.583 43.8599 581.363 43.3199C579.083 43.0799 578.963 42.8399 578.903 40.6199C578.843 36.9599 578.903 33.3599 578.903 29.6999C578.843 27.3599 578.843 25.0199 578.843 22.6799C578.963 16.9799 578.843 11.2799 578.783 5.51988C578.783 2.63988 579.263 2.09988 582.203 2.27988C585.683 2.57988 589.103 2.45988 592.583 2.45988C595.883 2.39988 599.063 3.05988 602.062 4.13988C606.203 5.69988 609.203 8.63988 611.303 12.5999ZM605.783 27.4199C606.383 24.8999 606.503 22.3799 606.023 19.7999C605.122 15.4199 602.723 12.2999 598.403 10.8599C595.763 9.95988 592.943 9.65988 590.123 9.29988C589.043 9.17988 588.083 9.47988 587.363 10.0199C586.943 10.3199 586.343 11.0399 585.983 13.6199C585.623 15.8399 585.683 17.5199 585.683 17.7599C585.863 21.1799 585.743 24.4799 585.623 26.3999C585.623 26.3999 585.323 29.0999 585.923 34.1399C586.043 35.2799 586.583 35.8199 587.663 36.0599C589.103 36.4199 590.543 36.1799 591.983 36.2999C595.823 36.5999 599.123 35.1599 602.123 32.9399C603.983 31.5599 605.183 29.7599 605.783 27.4199Z" fill="#1A1A1A"/>
</svg>
